<mxfile host="app.diagrams.net" agent="Mozilla/5.0 (Windows NT 10.0; Win64; x64) AppleWebKit/537.36 (KHTML, like Gecko) Chrome/138.0.0.0 Safari/537.36 Edg/138.0.0.0" version="27.2.0">
  <diagram name="5-19" id="UdMFD_dPWNcppXLJeB8Y">
    <mxGraphModel dx="421" dy="730" grid="1" gridSize="10" guides="1" tooltips="1" connect="1" arrows="1" fold="1" page="1" pageScale="1" pageWidth="827" pageHeight="1169" math="0" shadow="0">
      <root>
        <mxCell id="0" />
        <mxCell id="1" parent="0" />
        <mxCell id="1uTkvMKo1fF-bxD1LC5I-1" value="" style="rounded=0;whiteSpace=wrap;html=1;" vertex="1" parent="1">
          <mxGeometry x="160" y="440" width="40" height="240" as="geometry" />
        </mxCell>
        <mxCell id="1uTkvMKo1fF-bxD1LC5I-2" value="" style="rounded=0;whiteSpace=wrap;html=1;" vertex="1" parent="1">
          <mxGeometry x="400" y="440" width="40" height="240" as="geometry" />
        </mxCell>
        <mxCell id="1uTkvMKo1fF-bxD1LC5I-3" value="" style="rounded=0;whiteSpace=wrap;html=1;" vertex="1" parent="1">
          <mxGeometry x="640" y="440" width="40" height="240" as="geometry" />
        </mxCell>
        <mxCell id="1uTkvMKo1fF-bxD1LC5I-4" value="IF/ID" style="text;html=1;align=center;verticalAlign=middle;resizable=0;points=[];autosize=1;strokeColor=none;fillColor=none;" vertex="1" parent="1">
          <mxGeometry x="155" y="680" width="50" height="30" as="geometry" />
        </mxCell>
        <mxCell id="1uTkvMKo1fF-bxD1LC5I-5" value="ID/EX" style="text;html=1;align=center;verticalAlign=middle;resizable=0;points=[];autosize=1;strokeColor=none;fillColor=none;" vertex="1" parent="1">
          <mxGeometry x="395" y="680" width="50" height="30" as="geometry" />
        </mxCell>
        <mxCell id="1uTkvMKo1fF-bxD1LC5I-6" value="EX/MEM" style="text;html=1;align=center;verticalAlign=middle;resizable=0;points=[];autosize=1;strokeColor=none;fillColor=none;" vertex="1" parent="1">
          <mxGeometry x="625" y="680" width="70" height="30" as="geometry" />
        </mxCell>
        <mxCell id="1uTkvMKo1fF-bxD1LC5I-7" value="" style="rounded=0;whiteSpace=wrap;html=1;" vertex="1" parent="1">
          <mxGeometry x="880" y="440" width="40" height="240" as="geometry" />
        </mxCell>
        <mxCell id="1uTkvMKo1fF-bxD1LC5I-8" value="MEM/WB" style="text;html=1;align=center;verticalAlign=middle;resizable=0;points=[];autosize=1;strokeColor=none;fillColor=none;" vertex="1" parent="1">
          <mxGeometry x="865" y="680" width="70" height="30" as="geometry" />
        </mxCell>
        <mxCell id="1uTkvMKo1fF-bxD1LC5I-42" style="edgeStyle=orthogonalEdgeStyle;rounded=0;orthogonalLoop=1;jettySize=auto;html=1;exitX=0.75;exitY=0.92;exitDx=0;exitDy=0;exitPerimeter=0;entryX=0;entryY=0.75;entryDx=0;entryDy=0;" edge="1" parent="1" source="1uTkvMKo1fF-bxD1LC5I-9" target="1uTkvMKo1fF-bxD1LC5I-23">
          <mxGeometry relative="1" as="geometry" />
        </mxCell>
        <mxCell id="1uTkvMKo1fF-bxD1LC5I-48" style="edgeStyle=orthogonalEdgeStyle;rounded=0;orthogonalLoop=1;jettySize=auto;html=1;exitX=0.85;exitY=0.84;exitDx=0;exitDy=0;exitPerimeter=0;" edge="1" parent="1" source="1uTkvMKo1fF-bxD1LC5I-9" target="1uTkvMKo1fF-bxD1LC5I-23">
          <mxGeometry relative="1" as="geometry" />
        </mxCell>
        <mxCell id="1uTkvMKo1fF-bxD1LC5I-53" style="edgeStyle=orthogonalEdgeStyle;rounded=0;orthogonalLoop=1;jettySize=auto;html=1;exitX=0.9;exitY=0.77;exitDx=0;exitDy=0;exitPerimeter=0;entryX=0;entryY=0.25;entryDx=0;entryDy=0;" edge="1" parent="1" source="1uTkvMKo1fF-bxD1LC5I-9" target="1uTkvMKo1fF-bxD1LC5I-23">
          <mxGeometry relative="1" as="geometry" />
        </mxCell>
        <mxCell id="1uTkvMKo1fF-bxD1LC5I-57" style="edgeStyle=orthogonalEdgeStyle;rounded=0;orthogonalLoop=1;jettySize=auto;html=1;exitX=0.85;exitY=0.17;exitDx=0;exitDy=0;exitPerimeter=0;entryX=0;entryY=0.25;entryDx=0;entryDy=0;" edge="1" parent="1" source="1uTkvMKo1fF-bxD1LC5I-9" target="1uTkvMKo1fF-bxD1LC5I-22">
          <mxGeometry relative="1" as="geometry" />
        </mxCell>
        <mxCell id="1uTkvMKo1fF-bxD1LC5I-58" style="edgeStyle=orthogonalEdgeStyle;rounded=0;orthogonalLoop=1;jettySize=auto;html=1;exitX=0.95;exitY=0.26;exitDx=0;exitDy=0;exitPerimeter=0;entryX=0;entryY=0.75;entryDx=0;entryDy=0;" edge="1" parent="1" source="1uTkvMKo1fF-bxD1LC5I-9" target="1uTkvMKo1fF-bxD1LC5I-22">
          <mxGeometry relative="1" as="geometry" />
        </mxCell>
        <mxCell id="1uTkvMKo1fF-bxD1LC5I-59" style="edgeStyle=orthogonalEdgeStyle;rounded=0;orthogonalLoop=1;jettySize=auto;html=1;exitX=1;exitY=0.44;exitDx=0;exitDy=0;exitPerimeter=0;entryX=0;entryY=0.25;entryDx=0;entryDy=0;" edge="1" parent="1" source="1uTkvMKo1fF-bxD1LC5I-9" target="1uTkvMKo1fF-bxD1LC5I-21">
          <mxGeometry relative="1" as="geometry" />
        </mxCell>
        <mxCell id="1uTkvMKo1fF-bxD1LC5I-60" style="edgeStyle=orthogonalEdgeStyle;rounded=0;orthogonalLoop=1;jettySize=auto;html=1;exitX=1;exitY=0.5;exitDx=0;exitDy=0;exitPerimeter=0;entryX=0;entryY=0.5;entryDx=0;entryDy=0;" edge="1" parent="1" source="1uTkvMKo1fF-bxD1LC5I-9" target="1uTkvMKo1fF-bxD1LC5I-21">
          <mxGeometry relative="1" as="geometry" />
        </mxCell>
        <mxCell id="1uTkvMKo1fF-bxD1LC5I-61" style="edgeStyle=orthogonalEdgeStyle;rounded=0;orthogonalLoop=1;jettySize=auto;html=1;exitX=0.95;exitY=0.58;exitDx=0;exitDy=0;exitPerimeter=0;entryX=0;entryY=0.75;entryDx=0;entryDy=0;" edge="1" parent="1" source="1uTkvMKo1fF-bxD1LC5I-9" target="1uTkvMKo1fF-bxD1LC5I-21">
          <mxGeometry relative="1" as="geometry" />
        </mxCell>
        <UserObject label="CU" id="1uTkvMKo1fF-bxD1LC5I-9">
          <mxCell style="ellipse;whiteSpace=wrap;html=1;points=[[0,0.5,0,0,0],[0,0.75,0,0,0],[0.75,0.92,0,0,0],[0.85,0.17,0,0,0],[0.85,0.84,0,0,0],[0.9,0.77,0,0,0],[0.95,0.26,0,0,0],[0.95,0.33,0,0,0],[0.95,0.38,0,0,0],[0.95,0.57,0,0,0],[0.95,0.58,0,0,0],[0.95,0.68,0,0,0],[1,0.44,0,0,0],[1,0.5,0,0,0],[1,0.58,0,0,0],[1,0.63,0,0,0]];" vertex="1" parent="1">
            <mxGeometry x="240" y="250" width="60" height="190" as="geometry" />
          </mxCell>
        </UserObject>
        <mxCell id="1uTkvMKo1fF-bxD1LC5I-70" style="edgeStyle=orthogonalEdgeStyle;rounded=0;orthogonalLoop=1;jettySize=auto;html=1;exitX=1;exitY=0.25;exitDx=0;exitDy=0;endArrow=none;endFill=0;dashed=1;" edge="1" parent="1" source="1uTkvMKo1fF-bxD1LC5I-11">
          <mxGeometry relative="1" as="geometry">
            <mxPoint x="710" y="395" as="targetPoint" />
          </mxGeometry>
        </mxCell>
        <mxCell id="1uTkvMKo1fF-bxD1LC5I-71" style="edgeStyle=orthogonalEdgeStyle;rounded=0;orthogonalLoop=1;jettySize=auto;html=1;exitX=1;exitY=0.5;exitDx=0;exitDy=0;endArrow=none;endFill=0;dashed=1;" edge="1" parent="1" source="1uTkvMKo1fF-bxD1LC5I-11">
          <mxGeometry relative="1" as="geometry">
            <mxPoint x="710" y="410" as="targetPoint" />
          </mxGeometry>
        </mxCell>
        <mxCell id="1uTkvMKo1fF-bxD1LC5I-72" style="edgeStyle=orthogonalEdgeStyle;rounded=0;orthogonalLoop=1;jettySize=auto;html=1;exitX=1;exitY=0.75;exitDx=0;exitDy=0;dashed=1;endArrow=none;endFill=0;" edge="1" parent="1" source="1uTkvMKo1fF-bxD1LC5I-11">
          <mxGeometry relative="1" as="geometry">
            <mxPoint x="710" y="425" as="targetPoint" />
          </mxGeometry>
        </mxCell>
        <mxCell id="1uTkvMKo1fF-bxD1LC5I-11" value="M" style="rounded=0;whiteSpace=wrap;html=1;" vertex="1" parent="1">
          <mxGeometry x="640" y="380" width="40" height="60" as="geometry" />
        </mxCell>
        <mxCell id="1uTkvMKo1fF-bxD1LC5I-73" style="edgeStyle=orthogonalEdgeStyle;rounded=0;orthogonalLoop=1;jettySize=auto;html=1;exitX=1;exitY=0.25;exitDx=0;exitDy=0;entryX=0;entryY=0.25;entryDx=0;entryDy=0;" edge="1" parent="1" source="1uTkvMKo1fF-bxD1LC5I-19" target="1uTkvMKo1fF-bxD1LC5I-20">
          <mxGeometry relative="1" as="geometry" />
        </mxCell>
        <mxCell id="1uTkvMKo1fF-bxD1LC5I-74" style="edgeStyle=orthogonalEdgeStyle;rounded=0;orthogonalLoop=1;jettySize=auto;html=1;exitX=1;exitY=0.75;exitDx=0;exitDy=0;entryX=0;entryY=0.75;entryDx=0;entryDy=0;" edge="1" parent="1" source="1uTkvMKo1fF-bxD1LC5I-19" target="1uTkvMKo1fF-bxD1LC5I-20">
          <mxGeometry relative="1" as="geometry">
            <Array as="points">
              <mxPoint x="770" y="365" />
              <mxPoint x="770" y="425" />
            </Array>
          </mxGeometry>
        </mxCell>
        <mxCell id="1uTkvMKo1fF-bxD1LC5I-19" value="WB" style="rounded=0;whiteSpace=wrap;html=1;" vertex="1" parent="1">
          <mxGeometry x="640" y="320" width="40" height="60" as="geometry" />
        </mxCell>
        <mxCell id="1uTkvMKo1fF-bxD1LC5I-75" style="edgeStyle=orthogonalEdgeStyle;rounded=0;orthogonalLoop=1;jettySize=auto;html=1;exitX=1;exitY=0.25;exitDx=0;exitDy=0;endArrow=none;endFill=0;dashed=1;" edge="1" parent="1" source="1uTkvMKo1fF-bxD1LC5I-20">
          <mxGeometry relative="1" as="geometry">
            <mxPoint x="940" y="395" as="targetPoint" />
            <Array as="points">
              <mxPoint x="950" y="395" />
            </Array>
          </mxGeometry>
        </mxCell>
        <mxCell id="1uTkvMKo1fF-bxD1LC5I-76" style="edgeStyle=orthogonalEdgeStyle;rounded=0;orthogonalLoop=1;jettySize=auto;html=1;exitX=1;exitY=0.75;exitDx=0;exitDy=0;dashed=1;endArrow=none;endFill=0;" edge="1" parent="1" source="1uTkvMKo1fF-bxD1LC5I-20">
          <mxGeometry relative="1" as="geometry">
            <mxPoint x="950" y="425" as="targetPoint" />
          </mxGeometry>
        </mxCell>
        <mxCell id="1uTkvMKo1fF-bxD1LC5I-20" value="WB" style="rounded=0;whiteSpace=wrap;html=1;" vertex="1" parent="1">
          <mxGeometry x="880" y="380" width="40" height="60" as="geometry" />
        </mxCell>
        <mxCell id="1uTkvMKo1fF-bxD1LC5I-65" style="edgeStyle=orthogonalEdgeStyle;rounded=0;orthogonalLoop=1;jettySize=auto;html=1;exitX=1;exitY=0.25;exitDx=0;exitDy=0;entryX=0;entryY=0.25;entryDx=0;entryDy=0;" edge="1" parent="1" source="1uTkvMKo1fF-bxD1LC5I-21" target="1uTkvMKo1fF-bxD1LC5I-11">
          <mxGeometry relative="1" as="geometry" />
        </mxCell>
        <mxCell id="1uTkvMKo1fF-bxD1LC5I-66" style="edgeStyle=orthogonalEdgeStyle;rounded=0;orthogonalLoop=1;jettySize=auto;html=1;exitX=1;exitY=0.5;exitDx=0;exitDy=0;entryX=0;entryY=0.5;entryDx=0;entryDy=0;" edge="1" parent="1" source="1uTkvMKo1fF-bxD1LC5I-21" target="1uTkvMKo1fF-bxD1LC5I-11">
          <mxGeometry relative="1" as="geometry">
            <Array as="points">
              <mxPoint x="530" y="350" />
              <mxPoint x="530" y="410" />
            </Array>
          </mxGeometry>
        </mxCell>
        <mxCell id="1uTkvMKo1fF-bxD1LC5I-67" style="edgeStyle=orthogonalEdgeStyle;rounded=0;orthogonalLoop=1;jettySize=auto;html=1;exitX=1;exitY=0.75;exitDx=0;exitDy=0;entryX=0;entryY=0.75;entryDx=0;entryDy=0;" edge="1" parent="1" source="1uTkvMKo1fF-bxD1LC5I-21" target="1uTkvMKo1fF-bxD1LC5I-11">
          <mxGeometry relative="1" as="geometry">
            <Array as="points">
              <mxPoint x="520" y="365" />
              <mxPoint x="520" y="425" />
            </Array>
          </mxGeometry>
        </mxCell>
        <mxCell id="1uTkvMKo1fF-bxD1LC5I-21" value="M" style="rounded=0;whiteSpace=wrap;html=1;" vertex="1" parent="1">
          <mxGeometry x="400" y="320" width="40" height="60" as="geometry" />
        </mxCell>
        <mxCell id="1uTkvMKo1fF-bxD1LC5I-68" style="edgeStyle=orthogonalEdgeStyle;rounded=0;orthogonalLoop=1;jettySize=auto;html=1;exitX=1;exitY=0.25;exitDx=0;exitDy=0;entryX=0;entryY=0.25;entryDx=0;entryDy=0;" edge="1" parent="1" source="1uTkvMKo1fF-bxD1LC5I-22" target="1uTkvMKo1fF-bxD1LC5I-19">
          <mxGeometry relative="1" as="geometry">
            <Array as="points">
              <mxPoint x="570" y="275" />
              <mxPoint x="570" y="335" />
            </Array>
          </mxGeometry>
        </mxCell>
        <mxCell id="1uTkvMKo1fF-bxD1LC5I-69" style="edgeStyle=orthogonalEdgeStyle;rounded=0;orthogonalLoop=1;jettySize=auto;html=1;exitX=1;exitY=0.75;exitDx=0;exitDy=0;entryX=0;entryY=0.75;entryDx=0;entryDy=0;" edge="1" parent="1" source="1uTkvMKo1fF-bxD1LC5I-22" target="1uTkvMKo1fF-bxD1LC5I-19">
          <mxGeometry relative="1" as="geometry">
            <Array as="points">
              <mxPoint x="560" y="305" />
              <mxPoint x="560" y="365" />
            </Array>
          </mxGeometry>
        </mxCell>
        <mxCell id="1uTkvMKo1fF-bxD1LC5I-22" value="WB" style="rounded=0;whiteSpace=wrap;html=1;" vertex="1" parent="1">
          <mxGeometry x="400" y="260" width="40" height="60" as="geometry" />
        </mxCell>
        <mxCell id="1uTkvMKo1fF-bxD1LC5I-62" style="edgeStyle=orthogonalEdgeStyle;rounded=0;orthogonalLoop=1;jettySize=auto;html=1;exitX=1;exitY=0.25;exitDx=0;exitDy=0;dashed=1;endArrow=none;endFill=0;" edge="1" parent="1" source="1uTkvMKo1fF-bxD1LC5I-23">
          <mxGeometry relative="1" as="geometry">
            <mxPoint x="470" y="395" as="targetPoint" />
          </mxGeometry>
        </mxCell>
        <mxCell id="1uTkvMKo1fF-bxD1LC5I-63" style="edgeStyle=orthogonalEdgeStyle;rounded=0;orthogonalLoop=1;jettySize=auto;html=1;exitX=1;exitY=0.5;exitDx=0;exitDy=0;endArrow=none;endFill=0;dashed=1;" edge="1" parent="1" source="1uTkvMKo1fF-bxD1LC5I-23">
          <mxGeometry relative="1" as="geometry">
            <mxPoint x="470" y="410" as="targetPoint" />
          </mxGeometry>
        </mxCell>
        <mxCell id="1uTkvMKo1fF-bxD1LC5I-64" style="edgeStyle=orthogonalEdgeStyle;rounded=0;orthogonalLoop=1;jettySize=auto;html=1;exitX=1;exitY=0.75;exitDx=0;exitDy=0;dashed=1;endArrow=none;endFill=0;" edge="1" parent="1" source="1uTkvMKo1fF-bxD1LC5I-23">
          <mxGeometry relative="1" as="geometry">
            <mxPoint x="470" y="425" as="targetPoint" />
          </mxGeometry>
        </mxCell>
        <mxCell id="1uTkvMKo1fF-bxD1LC5I-23" value="EXE" style="rounded=0;whiteSpace=wrap;html=1;" vertex="1" parent="1">
          <mxGeometry x="400" y="380" width="40" height="60" as="geometry" />
        </mxCell>
        <mxCell id="1uTkvMKo1fF-bxD1LC5I-25" style="edgeStyle=orthogonalEdgeStyle;rounded=0;orthogonalLoop=1;jettySize=auto;html=1;exitX=1;exitY=0.5;exitDx=0;exitDy=0;entryX=0.01;entryY=0.479;entryDx=0;entryDy=0;entryPerimeter=0;" edge="1" parent="1" source="1uTkvMKo1fF-bxD1LC5I-1" target="1uTkvMKo1fF-bxD1LC5I-9">
          <mxGeometry relative="1" as="geometry" />
        </mxCell>
      </root>
    </mxGraphModel>
  </diagram>
</mxfile>
